<svg width="291" height="225" viewBox="0 0 291 225" fill="none" xmlns="http://www.w3.org/2000/svg">
<mask id="path-1-outside-1_3453_6183" maskUnits="userSpaceOnUse" x="43.6934" y="108.645" width="203" height="111" fill="black">
<rect fill="white" x="43.6934" y="108.645" width="203" height="111"/>
<path d="M70.2454 195.682C65.4024 195.682 61.0161 194.437 57.0864 191.946C53.1844 189.428 50.0849 185.734 47.788 180.863C45.5187 175.965 44.3841 169.959 44.3841 162.847C44.3841 155.541 45.5602 149.467 47.9125 144.624C50.2648 139.753 53.392 136.114 57.294 133.707C61.2237 131.271 65.527 130.054 70.2039 130.054C73.7738 130.054 76.7488 130.662 79.1287 131.88C81.5363 133.07 83.4735 134.564 84.9402 136.363C86.4346 138.134 87.5693 139.878 88.3441 141.594H88.8838V109.63H106.526V194.645H89.0913V184.433H88.3441C87.5139 186.204 86.3378 187.961 84.8157 189.705C83.3213 191.421 81.3703 192.846 78.9627 193.98C76.5827 195.115 73.677 195.682 70.2454 195.682ZM75.8494 181.61C78.6998 181.61 81.1074 180.835 83.0723 179.285C85.0648 177.708 86.5868 175.508 87.6385 172.685C88.7177 169.863 89.2574 166.555 89.2574 162.764C89.2574 158.973 88.7316 155.68 87.68 152.885C86.6284 150.089 85.1063 147.931 83.1138 146.409C81.1212 144.887 78.6998 144.126 75.8494 144.126C72.9436 144.126 70.4945 144.914 68.5019 146.492C66.5094 148.069 65.0012 150.256 63.9772 153.051C62.9533 155.846 62.4413 159.084 62.4413 162.764C62.4413 166.472 62.9533 169.752 63.9772 172.602C65.0288 175.425 66.5371 177.639 68.5019 179.244C70.4945 180.821 72.9436 181.61 75.8494 181.61ZM139.247 195.848C135.179 195.848 131.554 195.143 128.371 193.731C125.189 192.292 122.67 190.175 120.816 187.38C118.99 184.557 118.076 181.043 118.076 176.836C118.076 173.294 118.727 170.319 120.027 167.912C121.328 165.504 123.099 163.567 125.341 162.1C127.582 160.633 130.128 159.526 132.979 158.779C135.857 158.032 138.873 157.506 142.028 157.202C145.736 156.814 148.725 156.455 150.994 156.122C153.264 155.763 154.91 155.237 155.934 154.545C156.958 153.853 157.47 152.829 157.47 151.473V151.224C157.47 148.595 156.64 146.561 154.98 145.122C153.347 143.683 151.022 142.963 148.006 142.963C144.823 142.963 142.291 143.669 140.409 145.081C138.527 146.464 137.282 148.208 136.673 150.311L120.318 148.983C121.148 145.108 122.781 141.76 125.216 138.937C127.651 136.086 130.792 133.9 134.639 132.378C138.514 130.828 142.997 130.054 148.089 130.054C151.631 130.054 155.021 130.469 158.259 131.299C161.524 132.129 164.416 133.416 166.935 135.159C169.481 136.903 171.487 139.144 172.954 141.884C174.42 144.596 175.154 147.848 175.154 151.639V194.645H158.383V185.803H157.885C156.861 187.795 155.491 189.553 153.776 191.075C152.06 192.569 149.998 193.745 147.591 194.603C145.183 195.433 142.402 195.848 139.247 195.848ZM144.311 183.644C146.913 183.644 149.209 183.132 151.202 182.108C153.195 181.057 154.758 179.645 155.893 177.874C157.027 176.103 157.595 174.097 157.595 171.855V165.089C157.041 165.449 156.28 165.781 155.312 166.085C154.371 166.362 153.305 166.625 152.115 166.874C150.925 167.095 149.735 167.303 148.545 167.496C147.355 167.662 146.276 167.815 145.307 167.953C143.232 168.257 141.419 168.742 139.87 169.406C138.32 170.07 137.116 170.969 136.258 172.104C135.4 173.211 134.971 174.595 134.971 176.255C134.971 178.663 135.843 180.503 137.586 181.776C139.358 183.021 141.599 183.644 144.311 183.644ZM197.507 218.555C195.266 218.555 193.163 218.375 191.198 218.015C189.261 217.683 187.656 217.254 186.383 216.728L190.368 203.528C192.443 204.164 194.311 204.51 195.972 204.566C197.66 204.621 199.113 204.234 200.33 203.403C201.575 202.573 202.586 201.162 203.36 199.169L204.398 196.471L181.526 130.884H200.123L213.323 177.708H213.987L227.312 130.884H246.034L221.252 201.535C220.062 204.967 218.443 207.956 216.395 210.502C214.375 213.075 211.815 215.054 208.715 216.438C205.616 217.849 201.88 218.555 197.507 218.555Z"/>
</mask>
<path d="M70.2454 195.682C65.4024 195.682 61.0161 194.437 57.0864 191.946C53.1844 189.428 50.0849 185.734 47.788 180.863C45.5187 175.965 44.3841 169.959 44.3841 162.847C44.3841 155.541 45.5602 149.467 47.9125 144.624C50.2648 139.753 53.392 136.114 57.294 133.707C61.2237 131.271 65.527 130.054 70.2039 130.054C73.7738 130.054 76.7488 130.662 79.1287 131.88C81.5363 133.07 83.4735 134.564 84.9402 136.363C86.4346 138.134 87.5693 139.878 88.3441 141.594H88.8838V109.63H106.526V194.645H89.0913V184.433H88.3441C87.5139 186.204 86.3378 187.961 84.8157 189.705C83.3213 191.421 81.3703 192.846 78.9627 193.98C76.5827 195.115 73.677 195.682 70.2454 195.682ZM75.8494 181.61C78.6998 181.61 81.1074 180.835 83.0723 179.285C85.0648 177.708 86.5868 175.508 87.6385 172.685C88.7177 169.863 89.2574 166.555 89.2574 162.764C89.2574 158.973 88.7316 155.68 87.68 152.885C86.6284 150.089 85.1063 147.931 83.1138 146.409C81.1212 144.887 78.6998 144.126 75.8494 144.126C72.9436 144.126 70.4945 144.914 68.5019 146.492C66.5094 148.069 65.0012 150.256 63.9772 153.051C62.9533 155.846 62.4413 159.084 62.4413 162.764C62.4413 166.472 62.9533 169.752 63.9772 172.602C65.0288 175.425 66.5371 177.639 68.5019 179.244C70.4945 180.821 72.9436 181.61 75.8494 181.61ZM139.247 195.848C135.179 195.848 131.554 195.143 128.371 193.731C125.189 192.292 122.67 190.175 120.816 187.38C118.99 184.557 118.076 181.043 118.076 176.836C118.076 173.294 118.727 170.319 120.027 167.912C121.328 165.504 123.099 163.567 125.341 162.1C127.582 160.633 130.128 159.526 132.979 158.779C135.857 158.032 138.873 157.506 142.028 157.202C145.736 156.814 148.725 156.455 150.994 156.122C153.264 155.763 154.91 155.237 155.934 154.545C156.958 153.853 157.47 152.829 157.47 151.473V151.224C157.47 148.595 156.64 146.561 154.98 145.122C153.347 143.683 151.022 142.963 148.006 142.963C144.823 142.963 142.291 143.669 140.409 145.081C138.527 146.464 137.282 148.208 136.673 150.311L120.318 148.983C121.148 145.108 122.781 141.76 125.216 138.937C127.651 136.086 130.792 133.9 134.639 132.378C138.514 130.828 142.997 130.054 148.089 130.054C151.631 130.054 155.021 130.469 158.259 131.299C161.524 132.129 164.416 133.416 166.935 135.159C169.481 136.903 171.487 139.144 172.954 141.884C174.42 144.596 175.154 147.848 175.154 151.639V194.645H158.383V185.803H157.885C156.861 187.795 155.491 189.553 153.776 191.075C152.06 192.569 149.998 193.745 147.591 194.603C145.183 195.433 142.402 195.848 139.247 195.848ZM144.311 183.644C146.913 183.644 149.209 183.132 151.202 182.108C153.195 181.057 154.758 179.645 155.893 177.874C157.027 176.103 157.595 174.097 157.595 171.855V165.089C157.041 165.449 156.28 165.781 155.312 166.085C154.371 166.362 153.305 166.625 152.115 166.874C150.925 167.095 149.735 167.303 148.545 167.496C147.355 167.662 146.276 167.815 145.307 167.953C143.232 168.257 141.419 168.742 139.87 169.406C138.32 170.07 137.116 170.969 136.258 172.104C135.4 173.211 134.971 174.595 134.971 176.255C134.971 178.663 135.843 180.503 137.586 181.776C139.358 183.021 141.599 183.644 144.311 183.644ZM197.507 218.555C195.266 218.555 193.163 218.375 191.198 218.015C189.261 217.683 187.656 217.254 186.383 216.728L190.368 203.528C192.443 204.164 194.311 204.51 195.972 204.566C197.66 204.621 199.113 204.234 200.33 203.403C201.575 202.573 202.586 201.162 203.36 199.169L204.398 196.471L181.526 130.884H200.123L213.323 177.708H213.987L227.312 130.884H246.034L221.252 201.535C220.062 204.967 218.443 207.956 216.395 210.502C214.375 213.075 211.815 215.054 208.715 216.438C205.616 217.849 201.88 218.555 197.507 218.555Z" fill="#4F46E5"/>
<path d="M57.0864 191.946L56.8656 192.289L56.8684 192.29L57.0864 191.946ZM47.788 180.863L47.4184 181.034L47.4196 181.037L47.788 180.863ZM47.9125 144.624L48.2789 144.802L48.2793 144.801L47.9125 144.624ZM57.294 133.707L57.5079 134.053L57.5085 134.053L57.294 133.707ZM79.1287 131.88L78.9432 132.243L78.9482 132.245L79.1287 131.88ZM84.9402 136.363L84.6245 136.621L84.6289 136.626L84.9402 136.363ZM88.3441 141.594L87.9729 141.761L88.0812 142.001H88.3441V141.594ZM88.8838 141.594V142.001H89.2911V141.594H88.8838ZM88.8838 109.63V109.223H88.4765V109.63H88.8838ZM106.526 109.63H106.933V109.223H106.526V109.63ZM106.526 194.645V195.052H106.933V194.645H106.526ZM89.0913 194.645H88.684V195.052H89.0913V194.645ZM89.0913 184.433H89.4986V184.026H89.0913V184.433ZM88.3441 184.433V184.026H88.0852L87.9753 184.26L88.3441 184.433ZM84.8157 189.705L84.5089 189.437L84.5086 189.437L84.8157 189.705ZM78.9627 193.98L78.789 193.612L78.7874 193.613L78.9627 193.98ZM83.0723 179.285L83.3245 179.605L83.3251 179.605L83.0723 179.285ZM87.6385 172.685L87.258 172.54L87.2568 172.543L87.6385 172.685ZM87.68 152.885L88.0612 152.741L88.0612 152.741L87.68 152.885ZM68.5019 146.492L68.2491 146.173L68.2491 146.173L68.5019 146.492ZM63.9772 172.602L63.5939 172.74L63.5956 172.744L63.9772 172.602ZM68.5019 179.244L68.2442 179.559L68.2491 179.563L68.5019 179.244ZM70.2454 195.275C65.4763 195.275 61.1662 194.05 57.3045 191.602L56.8684 192.29C60.8661 194.824 65.3286 196.09 70.2454 196.09V195.275ZM57.3073 191.604C53.4789 189.133 50.4261 185.502 48.1564 180.689L47.4196 181.037C49.7437 185.965 52.8899 189.723 56.8656 192.289L57.3073 191.604ZM48.1576 180.692C45.9197 175.861 44.7914 169.918 44.7914 162.847H43.9768C43.9768 170.001 45.1177 176.068 47.4184 181.034L48.1576 180.692ZM44.7914 162.847C44.7914 155.582 45.9614 149.573 48.2789 144.802L47.5461 144.446C45.1591 149.36 43.9768 155.5 43.9768 162.847H44.7914ZM48.2793 144.801C50.604 139.988 53.683 136.413 57.5079 134.053L57.0801 133.36C53.1009 135.815 49.9256 139.519 47.5458 144.447L48.2793 144.801ZM57.5085 134.053C61.373 131.658 65.6019 130.461 70.2039 130.461V129.646C65.4521 129.646 61.0744 130.885 57.0794 133.36L57.5085 134.053ZM70.2039 130.461C73.73 130.461 76.6366 131.063 78.9432 132.243L79.3142 131.517C76.8609 130.262 73.8176 129.646 70.2039 129.646V130.461ZM78.9482 132.245C81.3118 133.413 83.2 134.874 84.6246 136.621L85.2559 136.106C83.747 134.255 81.7609 132.727 79.3092 131.515L78.9482 132.245ZM84.6289 136.626C86.1044 138.375 87.2166 140.087 87.9729 141.761L88.7153 141.426C87.9219 139.669 86.7648 137.894 85.2515 136.101L84.6289 136.626ZM88.3441 142.001H88.8838V141.186H88.3441V142.001ZM89.2911 141.594V109.63H88.4765V141.594H89.2911ZM88.8838 110.038H106.526V109.223H88.8838V110.038ZM106.119 109.63V194.645H106.933V109.63H106.119ZM106.526 194.237H89.0913V195.052H106.526V194.237ZM89.4986 194.645V184.433H88.684V194.645H89.4986ZM89.0913 184.026H88.3441V184.84H89.0913V184.026ZM87.9753 184.26C87.1639 185.991 86.0104 187.717 84.5089 189.437L85.1225 189.973C86.6652 188.206 87.864 186.417 88.7129 184.606L87.9753 184.26ZM84.5086 189.437C83.057 191.104 81.1542 192.497 78.789 193.612L79.1363 194.349C81.5864 193.194 83.5857 191.737 85.1228 189.972L84.5086 189.437ZM78.7874 193.613C76.4761 194.715 73.6339 195.275 70.2454 195.275V196.09C73.72 196.09 76.6893 195.515 79.1379 194.348L78.7874 193.613ZM75.8494 182.017C78.7779 182.017 81.2779 181.219 83.3245 179.605L82.82 178.966C80.9369 180.451 78.6216 181.203 75.8494 181.203V182.017ZM83.3251 179.605C85.3859 177.973 86.9474 175.707 88.0201 172.827L87.2568 172.543C86.2263 175.309 84.7436 177.443 82.8194 178.966L83.3251 179.605ZM88.0189 172.831C89.1198 169.951 89.6647 166.593 89.6647 162.764H88.8501C88.8501 166.518 88.3157 169.774 87.258 172.54L88.0189 172.831ZM89.6647 162.764C89.6647 158.936 89.134 155.593 88.0612 152.741L87.2988 153.028C88.3292 155.767 88.8501 159.009 88.8501 162.764H89.6647ZM88.0612 152.741C86.9879 149.888 85.4249 147.662 83.361 146.085L82.8665 146.733C84.7876 148.2 86.2688 150.291 87.2988 153.028L88.0612 152.741ZM83.361 146.085C81.2879 144.502 78.7763 143.718 75.8494 143.718V144.533C78.6232 144.533 80.9546 145.272 82.8665 146.733L83.361 146.085ZM75.8494 143.718C72.8656 143.718 70.3237 144.53 68.2491 146.173L68.7547 146.811C70.6652 145.299 73.0215 144.533 75.8494 144.533V143.718ZM68.2491 146.173C66.1882 147.804 64.6401 150.057 63.5948 152.911L64.3597 153.191C65.3623 150.454 66.8306 148.335 68.7547 146.811L68.2491 146.173ZM63.5948 152.911C62.551 155.76 62.034 159.047 62.034 162.764H62.8486C62.8486 159.12 63.3556 155.932 64.3597 153.191L63.5948 152.911ZM62.034 162.764C62.034 166.509 62.551 169.837 63.5939 172.74L64.3606 172.465C63.3556 169.667 62.8486 166.436 62.8486 162.764H62.034ZM63.5956 172.744C64.6677 175.622 66.2138 177.901 68.2443 179.559L68.7596 178.929C66.8604 177.377 65.39 175.228 64.3589 172.46L63.5956 172.744ZM68.2491 179.563C70.3237 181.206 72.8656 182.017 75.8494 182.017V181.203C73.0215 181.203 70.6652 180.437 68.7547 178.925L68.2491 179.563ZM128.371 193.731L128.203 194.102L128.206 194.104L128.371 193.731ZM120.816 187.38L120.474 187.601L120.477 187.605L120.816 187.38ZM120.027 167.912L119.669 167.718L119.669 167.718L120.027 167.912ZM125.341 162.1L125.118 161.759L125.118 161.759L125.341 162.1ZM132.979 158.779L132.876 158.385L132.875 158.385L132.979 158.779ZM142.028 157.202L142.067 157.607L142.07 157.607L142.028 157.202ZM150.994 156.122L151.053 156.525L151.058 156.525L150.994 156.122ZM155.934 154.545L155.706 154.208L155.706 154.208L155.934 154.545ZM154.98 145.122L154.71 145.428L154.713 145.43L154.98 145.122ZM140.409 145.081L140.65 145.409L140.654 145.406L140.409 145.081ZM136.673 150.311L136.64 150.717L136.972 150.744L137.064 150.424L136.673 150.311ZM120.318 148.983L119.92 148.897L119.822 149.351L120.285 149.389L120.318 148.983ZM125.216 138.937L125.525 139.203L125.526 139.201L125.216 138.937ZM134.639 132.378L134.789 132.757L134.79 132.756L134.639 132.378ZM158.259 131.299L158.158 131.693L158.159 131.694L158.259 131.299ZM166.935 135.159L166.703 135.494L166.705 135.495L166.935 135.159ZM172.954 141.884L172.595 142.076L172.595 142.078L172.954 141.884ZM175.154 194.645V195.052H175.561V194.645H175.154ZM158.383 194.645H157.976V195.052H158.383V194.645ZM158.383 185.803H158.791V185.395H158.383V185.803ZM157.885 185.803V185.395H157.637L157.523 185.617L157.885 185.803ZM153.776 191.075L154.043 191.382L154.046 191.379L153.776 191.075ZM147.591 194.603L147.723 194.988L147.727 194.987L147.591 194.603ZM151.202 182.108L151.388 182.471L151.392 182.468L151.202 182.108ZM155.893 177.874L155.55 177.654L155.55 177.654L155.893 177.874ZM157.595 165.089H158.002V164.338L157.373 164.747L157.595 165.089ZM155.312 166.085L155.427 166.476L155.434 166.474L155.312 166.085ZM152.115 166.874L152.19 167.274L152.199 167.272L152.115 166.874ZM148.545 167.496L148.602 167.9L148.611 167.898L148.545 167.496ZM145.307 167.953L145.25 167.55L145.248 167.55L145.307 167.953ZM139.87 169.406L140.03 169.78L140.03 169.78L139.87 169.406ZM136.258 172.104L136.58 172.354L136.583 172.35L136.258 172.104ZM137.586 181.776L137.346 182.105L137.352 182.109L137.586 181.776ZM139.247 195.441C135.226 195.441 131.659 194.744 128.536 193.359L128.206 194.104C131.448 195.542 135.131 196.256 139.247 196.256V195.441ZM128.539 193.36C125.423 191.951 122.965 189.884 121.155 187.155L120.477 187.605C122.375 190.467 124.954 192.633 128.203 194.102L128.539 193.36ZM121.158 187.159C119.384 184.417 118.484 180.984 118.484 176.836H117.669C117.669 181.102 118.595 184.698 120.474 187.601L121.158 187.159ZM118.484 176.836C118.484 173.342 119.125 170.438 120.386 168.105L119.669 167.718C118.328 170.2 117.669 173.246 117.669 176.836H118.484ZM120.386 168.105C121.655 165.756 123.38 163.87 125.564 162.441L125.118 161.759C122.818 163.264 121.001 165.252 119.669 167.718L120.386 168.105ZM125.564 162.441C127.765 161 130.27 159.91 133.082 159.173L132.875 158.385C129.987 159.142 127.4 160.266 125.118 161.759L125.564 162.441ZM133.081 159.173C135.937 158.432 138.932 157.91 142.067 157.607L141.989 156.796C138.814 157.103 135.777 157.632 132.876 158.385L133.081 159.173ZM142.07 157.607C145.781 157.219 148.776 156.859 151.053 156.525L150.935 155.719C148.674 156.05 145.691 156.409 141.986 156.797L142.07 157.607ZM151.058 156.525C153.344 156.162 155.063 155.625 156.162 154.882L155.706 154.208C154.758 154.848 153.183 155.363 150.931 155.72L151.058 156.525ZM156.162 154.882C157.311 154.107 157.877 152.949 157.877 151.473H157.063C157.063 152.709 156.606 153.6 155.706 154.208L156.162 154.882ZM157.877 151.473V151.224H157.063V151.473H157.877ZM157.877 151.224C157.877 148.502 157.014 146.346 155.246 144.814L154.713 145.43C156.266 146.776 157.063 148.688 157.063 151.224H157.877ZM155.249 144.816C153.517 143.29 151.083 142.556 148.006 142.556V143.371C150.961 143.371 153.176 144.076 154.71 145.428L155.249 144.816ZM148.006 142.556C144.766 142.556 142.138 143.275 140.165 144.755L140.654 145.406C142.444 144.064 144.881 143.371 148.006 143.371V142.556ZM140.168 144.752C138.219 146.185 136.917 148.002 136.282 150.198L137.064 150.424C137.647 148.413 138.836 146.743 140.65 145.409L140.168 144.752ZM136.706 149.905L120.351 148.577L120.285 149.389L136.64 150.717L136.706 149.905ZM120.716 149.068C121.533 145.256 123.137 141.971 125.525 139.203L124.908 138.671C122.425 141.549 120.763 144.96 119.92 148.897L120.716 149.068ZM125.526 139.201C127.914 136.407 130.998 134.257 134.789 132.757L134.489 131.999C130.587 133.543 127.389 135.766 124.907 138.672L125.526 139.201ZM134.79 132.756C138.607 131.23 143.037 130.461 148.089 130.461V129.646C142.956 129.646 138.42 130.427 134.488 132L134.79 132.756ZM148.089 130.461C151.599 130.461 154.955 130.872 158.158 131.693L158.36 130.904C155.087 130.065 151.663 129.646 148.089 129.646V130.461ZM158.159 131.694C161.382 132.513 164.228 133.781 166.703 135.494L167.166 134.825C164.604 133.051 161.667 131.745 158.359 130.904L158.159 131.694ZM166.705 135.495C169.196 137.202 171.159 139.394 172.595 142.076L173.313 141.692C171.815 138.895 169.765 136.604 167.165 134.823L166.705 135.495ZM172.595 142.078C174.023 144.718 174.747 147.9 174.747 151.639H175.561C175.561 147.796 174.817 144.474 173.312 141.69L172.595 142.078ZM174.747 151.639V194.645H175.561V151.639H174.747ZM175.154 194.237H158.383V195.052H175.154V194.237ZM158.791 194.645V185.803H157.976V194.645H158.791ZM158.383 185.395H157.885V186.21H158.383V185.395ZM157.523 185.617C156.523 187.563 155.184 189.28 153.505 190.77L154.046 191.379C155.799 189.825 157.2 188.027 158.248 185.989L157.523 185.617ZM153.508 190.767C151.835 192.225 149.819 193.376 147.454 194.219L147.727 194.987C150.177 194.114 152.285 192.913 154.043 191.382L153.508 190.767ZM147.458 194.218C145.102 195.03 142.367 195.441 139.247 195.441V196.256C142.437 196.256 145.264 195.836 147.723 194.988L147.458 194.218ZM144.311 184.051C146.967 184.051 149.329 183.528 151.388 182.471L151.016 181.746C149.09 182.736 146.858 183.237 144.311 183.237V184.051ZM151.392 182.468C153.442 181.386 155.06 179.928 156.236 178.094L155.55 177.654C154.456 179.362 152.947 180.727 151.012 181.748L151.392 182.468ZM156.236 178.094C157.415 176.253 158.002 174.169 158.002 171.855H157.187C157.187 174.024 156.64 175.953 155.55 177.654L156.236 178.094ZM158.002 171.855V165.089H157.187V171.855H158.002ZM157.373 164.747C156.862 165.079 156.14 165.398 155.189 165.696L155.434 166.474C156.421 166.163 157.22 165.818 157.817 165.43L157.373 164.747ZM155.197 165.694C154.268 165.967 153.214 166.228 152.032 166.475L152.199 167.272C153.397 167.022 154.473 166.756 155.427 166.476L155.197 165.694ZM152.041 166.473C150.854 166.694 149.667 166.901 148.48 167.094L148.611 167.898C149.804 167.704 150.997 167.496 152.19 167.274L152.041 166.473ZM148.489 167.093C147.299 167.259 146.219 167.411 145.25 167.55L145.365 168.356C146.333 168.218 147.412 168.066 148.602 167.9L148.489 167.093ZM145.248 167.55C143.146 167.858 141.298 168.351 139.709 169.032L140.03 169.78C141.541 169.133 143.318 168.656 145.367 168.356L145.248 167.55ZM139.709 169.032C138.106 169.718 136.841 170.658 135.933 171.858L136.583 172.35C137.391 171.281 138.533 170.422 140.03 169.78L139.709 169.032ZM135.936 171.855C135.013 173.046 134.564 174.522 134.564 176.255H135.379C135.379 174.668 135.787 173.377 136.58 172.354L135.936 171.855ZM134.564 176.255C134.564 178.776 135.485 180.746 137.346 182.105L137.827 181.447C136.201 180.261 135.379 178.55 135.379 176.255H134.564ZM137.352 182.109C139.207 183.414 141.537 184.051 144.311 184.051V183.237C141.662 183.237 139.508 182.629 137.821 181.443L137.352 182.109ZM191.198 218.015L191.271 217.615L191.267 217.614L191.198 218.015ZM186.383 216.728L185.993 216.611L185.886 216.964L186.227 217.105L186.383 216.728ZM190.368 203.528L190.487 203.138L190.096 203.019L189.978 203.41L190.368 203.528ZM195.972 204.566L195.958 204.973L195.958 204.973L195.972 204.566ZM200.33 203.403L200.104 203.064L200.101 203.067L200.33 203.403ZM203.36 199.169L203.74 199.317L203.741 199.315L203.36 199.169ZM204.398 196.471L204.778 196.617L204.832 196.478L204.783 196.337L204.398 196.471ZM181.526 130.884V130.476H180.952L181.141 131.018L181.526 130.884ZM200.123 130.884L200.515 130.773L200.431 130.476H200.123V130.884ZM213.323 177.708L212.931 177.819L213.015 178.115H213.323V177.708ZM213.987 177.708V178.115H214.295L214.379 177.82L213.987 177.708ZM227.312 130.884V130.476H227.005L226.921 130.772L227.312 130.884ZM246.034 130.884L246.418 131.019L246.608 130.476H246.034V130.884ZM221.252 201.535L220.867 201.401L220.867 201.402L221.252 201.535ZM216.395 210.502L216.077 210.246L216.074 210.25L216.395 210.502ZM208.715 216.438L208.549 216.066L208.547 216.067L208.715 216.438ZM197.507 218.148C195.288 218.148 193.209 217.969 191.271 217.615L191.124 218.416C193.116 218.78 195.244 218.962 197.507 218.962V218.148ZM191.267 217.614C189.348 217.285 187.774 216.862 186.538 216.352L186.227 217.105C187.537 217.646 189.174 218.081 191.129 218.417L191.267 217.614ZM186.772 216.846L190.757 203.646L189.978 203.41L185.993 216.611L186.772 216.846ZM190.248 203.917C192.348 204.561 194.253 204.916 195.958 204.973L195.985 204.159C194.37 204.105 192.538 203.767 190.487 203.138L190.248 203.917ZM195.958 204.973C197.72 205.03 199.26 204.626 200.56 203.74L200.101 203.067C198.965 203.841 197.6 204.212 195.985 204.159L195.958 204.973ZM200.556 203.742C201.895 202.85 202.947 201.355 203.74 199.317L202.981 199.022C202.224 200.968 201.256 202.297 200.104 203.064L200.556 203.742ZM203.741 199.315L204.778 196.617L204.018 196.325L202.98 199.023L203.741 199.315ZM204.783 196.337L181.91 130.75L181.141 131.018L204.014 196.605L204.783 196.337ZM181.526 131.291H200.123V130.476H181.526V131.291ZM199.731 130.994L212.931 177.819L213.715 177.598L200.515 130.773L199.731 130.994ZM213.323 178.115H213.987V177.301H213.323V178.115ZM214.379 177.82L227.704 130.995L226.921 130.772L213.596 177.597L214.379 177.82ZM227.312 131.291H246.034V130.476H227.312V131.291ZM245.649 130.749L220.867 201.401L221.636 201.67L246.418 131.019L245.649 130.749ZM220.867 201.402C219.69 204.794 218.093 207.741 216.078 210.246L216.712 210.757C218.793 208.171 220.433 205.14 221.636 201.669L220.867 201.402ZM216.074 210.25C214.097 212.77 211.591 214.708 208.549 216.066L208.881 216.81C212.039 215.4 214.653 213.381 216.715 210.753L216.074 210.25ZM208.547 216.067C205.513 217.448 201.838 218.148 197.507 218.148V218.962C201.922 218.962 205.719 218.25 208.884 216.808L208.547 216.067Z" fill="white" mask="url(#path-1-outside-1_3453_6183)"/>
<path d="M146.235 51.0967H156.562L156.696 51.2134H159.244L159.378 51.3302L162.865 51.447L162.999 51.5637H164.206L164.34 51.6805L167.693 51.914L167.828 52.0308L170.51 52.2643L176.545 53.1983L183.251 54.5994L188.213 55.8838L192.773 57.2849L198.272 59.2698C201.268 60.4374 204.129 61.7217 206.856 63.1228C212.882 66.1664 218.269 69.7664 223.017 73.9231L223.285 74.2733L223.822 74.5652V74.7404L227.845 78.5934L231.064 82.3297C233.585 85.4666 235.776 88.8915 237.636 92.6045L240.318 98.9095L241.659 103.23L242.866 108.951L243.403 113.971L243.135 115.256L242.732 116.19L241.19 118C240.403 118.638 239.42 119.105 238.239 119.401L235.691 119.517C233.599 119.198 232.056 118.4 231.064 117.124L229.991 115.256L229.589 111.636L229.455 111.519V110.585L228.113 104.514L226.504 99.9603L224.895 96.4575C221.56 90.2148 217.111 84.9412 211.55 80.6367C207.66 77.562 203.324 74.8766 198.54 72.5803C193.775 70.3074 188.589 68.4004 182.983 66.8591L175.472 65.1078L166.62 63.7066L163.402 63.4731L163.268 63.3564H162.06L161.926 63.2396H160.585L160.451 63.1228L156.025 63.0061L155.891 62.8893H146.905L146.771 63.0061H144.223L144.089 63.1228H142.345L142.211 63.2396L138.188 63.4731L138.053 63.5899L133.225 64.0569L132.42 64.2904H131.616L130.14 64.6407L127.458 64.991L118.07 67.0927L108.95 69.8949C97.3532 74.0048 87.5403 79.6676 79.5111 86.8833C75.577 90.4639 72.1793 94.5115 69.3182 99.0262C67.7803 101.502 66.4391 104.148 65.2946 106.966L63.6852 111.636L62.6123 115.84C62.1026 116.875 61.365 117.712 60.3993 118.35L58.3876 119.284L57.3146 119.517H55.3029C53.4878 119.19 52.0796 118.509 51.0782 117.474C50.497 116.89 50.0499 116.19 49.737 115.372L49.4688 114.205V113.037L50.5417 108.717L52.8217 102.295L54.9676 97.7419L57.5158 93.305C61.888 86.4474 67.2751 80.4732 73.677 75.3825C78.1565 71.7708 83.0742 68.5405 88.4299 65.6915C94.2327 62.6091 100.536 59.9626 107.341 57.7519L114.985 55.5335L125.178 53.3151H125.849L130.275 52.4978H131.079L134.969 51.914H135.908L136.042 51.7972L139.797 51.5637L139.931 51.447H141.406L141.54 51.3302L146.1 51.2134L146.235 51.0967Z" fill="#4F46E5" stroke="white" stroke-width="0.407299"/>
<path d="M5.81594 81.6445H6.52566L8.14787 81.9739L17.1714 84.2792L21.1256 85.4867L25.688 87.1334C29.703 88.7141 33.4882 90.5438 37.0435 92.6222L40.0852 94.4884L41.2511 95.6411L42.1636 97.5073L42.3664 98.3855V99.8126C42.1096 101.364 41.5181 102.553 40.5921 103.38C40.0852 103.856 39.4768 104.222 38.7671 104.478L37.8546 104.698H36.638L35.4213 104.368C33.0894 102.868 30.6561 101.478 28.1214 100.197L22.2408 97.5621L18.2867 96.1351L14.3326 94.9275L4.80206 92.6222C3.65299 92.2563 2.7574 91.6159 2.11527 90.7011L1.20278 88.8349L1 87.8469V86.6394C1.26361 84.8756 1.95643 83.5766 3.07846 82.7423L4.39651 81.9739L5.81594 81.6445Z" fill="#4F46E5" stroke="white" stroke-width="0.407299"/>
<path d="M47.3609 34.3975L48.7803 34.5072C49.6117 34.7414 50.3214 35.1074 50.9095 35.605L61.758 44.8262C63.9412 46.7803 66.0197 48.8477 67.9934 51.0286L68.1961 51.358C71.0418 54.4244 73.6779 57.7177 76.1044 61.2379C76.4965 61.838 76.7668 62.5698 76.9155 63.4334V65.1898C76.6114 66.8365 75.9186 68.0623 74.8371 68.8673C74.249 69.3284 73.5393 69.6577 72.7079 69.8553H70.9843C69.5784 69.548 68.5138 68.871 67.7906 67.8245L65.7628 64.9703L61.8087 60.1401V59.9754C61.6262 60.0559 61.5586 60.001 61.6059 59.8108L56.4858 54.4866L52.6331 51.0835L44.522 44.3871L43.6602 43.454C42.9167 42.5758 42.5449 41.2951 42.5449 39.6119L42.7477 38.4043L43.356 36.9772L44.6234 35.4952L45.9414 34.7268L47.3609 34.3975Z" fill="#4F46E5" stroke="white" stroke-width="0.407299"/>
<path d="M110.698 1H112.624L113.334 1.21955C114.382 1.65866 115.21 2.33562 115.818 3.25042L117.339 6.76328L119.062 11.7032L121.496 20.5951V21.0342L122.51 25.4253L123.726 32.6706V33.3292L124.233 36.5128V37.2812L124.335 37.391L124.436 39.1474L124.537 39.2572L124.639 42.0016C124.341 43.5824 123.682 44.7716 122.662 45.5693L120.837 46.5573L120.33 46.6671H118.708C117.248 46.3451 116.149 45.6315 115.412 44.5264L114.804 43.4287L114.5 42.4407L114.094 38.1594L113.993 38.0496L113.79 35.7443L113.385 33.5488V32.8901L111.965 25.096L110.647 19.6071L109.025 14.2281L106.693 8.19037L106.49 7.20238V5.77529C106.767 4.06277 107.46 2.80034 108.569 1.98799C109.13 1.49765 109.839 1.16832 110.698 1Z" fill="#4F46E5" stroke="white" stroke-width="0.407299"/>
<path d="M188.02 3.44336H188.932L190.25 3.77269C191.203 4.16789 191.964 4.77166 192.531 5.584L193.444 7.55998L193.545 8.10887V9.97507L193.343 10.8533L192.734 12.1706C189.828 17.4399 187.057 22.8555 184.42 28.4176L180.77 36.9801L178.743 43.0178C178.378 44.0497 177.82 44.8731 177.07 45.4878L175.549 46.366L174.738 46.5856H173.116C171.656 46.2636 170.557 45.55 169.821 44.4449L169.009 42.7983L168.807 41.9201V40.1637L169.618 37.4192L171.139 33.1379C172.632 29.2299 174.255 25.4609 176.005 21.831L183.913 6.35244L185.384 4.54113L186.702 3.77269L188.02 3.44336Z" fill="#4F46E5" stroke="white" stroke-width="0.407299"/>
<path d="M252.123 29.918H253.746L254.861 30.2473C255.76 30.6718 256.486 31.2755 257.041 32.0586C257.466 32.6295 257.771 33.3247 257.953 34.1444L258.055 36.1204C257.798 37.6719 257.206 38.8611 256.28 39.6881C251.779 42.6447 247.486 45.8283 243.404 49.2387L238.74 53.4102L234.583 57.6915H234.431V57.8561L230.528 62.1923L228.5 63.2901L226.573 63.3999C225.053 63.1071 223.92 62.3936 223.177 61.2592L222.366 59.6126L222.163 58.6246V57.0877C222.325 56.0192 222.663 55.141 223.177 54.4531L229.412 47.592C232.947 44.0279 236.699 40.698 240.666 37.6023L250.197 30.6864C250.738 30.3205 251.38 30.0643 252.123 29.918Z" fill="#4F46E5" stroke="white" stroke-width="0.407299"/>
<path d="M284.981 81.6445L285.082 81.7543L286.198 81.8641L287.414 82.413L288.885 83.7852L289.797 85.6514L290 86.6394V87.8469C289.709 89.5814 289.016 90.8804 287.921 91.744C287.36 92.2416 286.651 92.571 285.792 92.732L283.46 92.9515L282.548 93.1711H281.737L281.635 93.2809L280.216 93.3906L279.506 93.6102L276.971 93.9395L270.077 95.5862L267.238 96.4644L266.934 96.6839H266.63L262.777 98.111L259.127 99.6479L255.173 101.624L253.855 102.063H252.131C250.921 101.763 249.958 101.196 249.242 100.361C248.37 99.4759 247.897 98.1586 247.822 96.4095L247.924 96.2997L248.025 95.0922L248.633 93.5553L249.901 92.0733L251.624 91.0853L257.403 88.4507L263.487 86.1454L266.934 85.0476L271.496 83.8401L276.16 82.8521H276.769L279.506 82.3032L281.838 82.0836L281.939 81.9739L283.562 81.8641L283.663 81.7543H284.88L284.981 81.6445Z" fill="#4F46E5" stroke="white" stroke-width="0.407299"/>
</svg>
